# xmcd
#
# Track frame offsets:
#	150
#	16165
#	33602
#	69141
#
# Disc length: 1369 seconds
#
# Revision: 1
# Processed by: cddbd v1.5.2PL0 Copyright (c) Steve Scherf et al.
# Submitted via: audiograbber 1.83.01
#
DISCID=26055704
DTITLE=Beats and Styles - Invitation To The Dancefloor [CDM)
DYEAR=2006
DGENRE=Electronic
TTITLE0=Invitation To The Dancefloor (Radio Edit)
TTITLE1=Invitation To The Dancefloor (DJ Monique Short Cut)
TTITLE2=Invitation To The Dancefloor (DJ Monique Remix)
TTITLE3=Invitation To The Dancefloor (DJ Monique Dub)
EXTD=TR.
EXTT0=
EXTT1=
EXTT2=
EXTT3=
PLAYORDER=
